#!OML:ASF F:\VICON\USERDATA\INSTALL\rory3\rory3.ASF
:FULLY-SPECIFIED
:DEGREES
18
root 0.193876658968143 18.173683978976538 -17.479188069548645 -3.858801461783267 1.257854422134169 -6.44438947025121
lfemur -9.944838528513017 0.40008864483659323 -12.748010315574065
ltibia 67.12357992923299
lfoot 14.124177075439313 -20.205272602958804
ltoes -1.0849378472313047
rfemur -12.48860105483139 2.640078533978267 32.724290388100435
rtibia 26.451706228105927
rfoot -7.974999896374415 -7.972591108010285
rtoes 6.706154148788279
lowerback 11.424995644421582 -0.5205311492925978 2.36367603478372
upperback -0.009315349989735225 -0.1318164232918232 3.722904774767578
thorax -6.431334472677535 -0.07773154187897338 2.6137652778494154
lowerneck -14.941119434377937 -3.1256771141709145 -1.8948913386514934
upperneck 21.528098741173142 -3.8353603059307986 -0.23750854689619905
head 9.274039450824093 -1.9739560630552158 -0.23786100612925226
lclavicle 2.99111379723031e-16 5.5314580105624427e-17
lhumerus -29.895500701705462 5.373417340274839 84.04478615004764
lradius 27.86779570539803
lwrist 7.0608508618807795
lhand -29.55040005182812 17.79020219308492
lfingers 7.125020000000001
lthumb -2.883300051073832 47.75050217142899
rclavicle 2.99111379723031e-16 5.5314580105624427e-17
rhumerus -35.96839153750784 -25.746190509198136 -72.96130953550801
rradius 20.879715392249686
rwrist 9.172416012941758
rhand -14.063630938437864 24.308192654557786
rfingers 7.125020000000001
rthumb 12.067769070209357 -5.323808126459065
19
root 0.1871228692633341 18.149485430049097 -16.87178832873694 -3.73530233481493 1.4595836969262108 -6.258919998334237
lfemur -15.631794776239998 0.3076220564060739 -12.877710109377414
ltibia 71.09797762674313
lfoot 6.817705009133163 -14.178282165839402
ltoes -3.2092653681640213
rfemur -10.899602192719593 3.386496210876242 32.925390060662785
rtibia 27.435605703638196
rfoot -9.749417794989204 -9.433067124211243
rtoes 6.759434078766247
lowerback 11.565694075018834 -0.3161165104819442 2.43570585259328
upperback 0.41718435812417193 0.11397855724361411 3.3534296055856023
thorax -6.062891844644048 0.03552970009172371 2.1349170934250647
lowerneck -16.00650624276972 -3.323862261856144 -1.6702153510315143
upperneck 21.354700876624346 -4.1541660404949585 -0.1883770454660625
head 9.409245366942207 -2.0936215327321177 -0.3156887248570312
lclavicle 2.9911142831248836e-16 5.531452542582933e-17
lhumerus -29.879500729247013 6.680935096451593 83.49298856759701
lradius 27.104197211283132
lwrist 8.180727749230023
lhand -27.288711561768768 20.022297856593667
lfingers 7.125020000000001
lthumb -0.6988895622671905 50.00089780904666
rclavicle 2.9911142831248836e-16 5.531452542582933e-17
rhumerus -32.97919630578796 -25.3935911136626 -74.69920527799533
rradius 21.56751394805399
rwrist 8.491157782735609
rhand -14.24612949553275 18.927114875437383
rfingers 7.125020000000001
rthumb 11.891770512178931 -10.715185776769317
20
root 0.19404565370609417 18.175283883037856 -16.240688598038457 -3.355295021136894 0.5131190994251996 -6.133000356862371
lfemur -20.31189168829618 0.910768371797249 -13.066109809859691
ltibia 71.74527725174266
lfoot 0.1224692791193176 -9.722719235373795
ltoes -10.183497229310712
rfemur -9.00312355079525 4.617642379136665 33.12898972915454
rtibia 27.691005567497307
rfoot -12.172194925773297 -9.958905689860279
rtoes 11.712287569581441
lowerback 11.228297838462238 0.2394977897034546 2.6767952427877435
upperback 0.5544479846594998 0.8373525569620108 2.963164708225395
thorax -5.731618472911291 0.3803186792472657 1.4657296306811396
lowerneck -15.722709756734815 -3.413880057883312 -1.814822768557441
upperneck 21.114903829803108 -4.3679031808159765 0.33592863405720275
head 9.291238931315414 -2.147389497172053 -0.13115113399000694
lclavicle 2.9911139772621507e-16 5.531456215514378e-17
lhumerus -30.472499708488428 6.879594755532965 83.08819034110911
lradius 26.09609919934334
lwrist 9.434544264299705
lhand -26.93021338619894 20.63769666100354
lfingers 7.125020000000001
lthumb -0.35273438640197785 50.617096614547904
rclavicle 2.9911139772621507e-16 5.531456215514378e-17
rhumerus -30.367500471891663 -23.52589431547274 -76.76260022307176
rradius 22.490212010631218
rwrist 6.833772088343757
rhand -15.516019455285056 17.53642061823667
rfingers 7.125020000000001
rthumb 10.667080546157116 -12.17277973438555
21
root 0.5095484417263413 18.057362358730913 8.286152121961626 -2.8642398123568644 -0.845611158878063 -5.530524061487576
lfemur -19.533214909388807 2.6707246119764516 -14.068682404582376
ltibia 68.5998083049958
lfoot -4.409976999152827 -5.7532267404789845
ltoes -6.168671766187622
rfemur -5.477542619016102 3.8320006801972357 34.16399974322577
rtibia 28.74196172213769
rfoot -14.577928465567059 -9.918394503137158
rtoes 9.763851762390782
lowerback 11.28227584698677 0.6724458445097421 3.990369465262601
upperback 0.14591645039748963 2.0583341969720985 2.2741274310078
thorax -6.002796120550219 0.6425414107791064 -0.2978612580231397
lowerneck -16.435944158490905 -3.421380508525797 -1.7303848642768374
upperneck 21.64385274869247 -4.6284723901820835 0.3271668282383462
head 9.576471977574474 -2.294559923096686 -0.16551969828348628
lclavicle 3.0076453869937406e-16 5.650164735530303e-17
lhumerus -32.77362212522561 3.561129466696815 82.98741894603499
lradius 25.462148028862497
lwrist 8.297181253280348
lhand -28.325461509205446 21.24615621427459
lfingers 7.125020000000001
lthumb -1.734533715521728 51.123743045836946
rclavicle 2.9939837958375837e-16 5.552063543416237e-17
rhumerus -29.444937616505314 -18.274074816475398 -78.84689421126855
rradius 27.2891065200987
rwrist 3.0337291397174444
rhand -17.708418379583076 21.921255183297912
rfingers 7.125020000000001
rthumb 8.517508536300527 -7.984088754429511
22
root 0.5283314017664481 18.0177668351602 7.915669758306513 -2.4699834694075964 -1.5267644462615326 -5.961728013037937
lfemur -22.851313538848913 3.330874208661193 -13.907364506895023
ltibia 64.13530881174137
lfoot -8.66626004181067 -1.7183474489782793
ltoes -7.735367762814885
rfemur -3.269207246332922 3.7091895336479874 34.96627186399208
rtibia 30.0614485340078
rfoot -16.373351960247952 -9.61850332689274
rtoes 7.529432197646915
lowerback 11.421500210897676 0.9507594462175705 4.507011433174737
upperback -0.03511493299244411 2.4088115577376397 2.258082790099401
thorax -6.083855335787026 0.8396125156319425 -0.7077032131040444
lowerneck -16.21152933998184 -3.5445120647895068 -1.7652385464157618
upperneck 21.741957596938686 -4.845434384309563 0.4417059634977749
head 9.493837560804538 -2.3860795902385132 -0.11079438165275246
lclavicle 3.0076398004466496e-16 5.650124619637287e-17
lhumerus -33.63256088116827 4.409516210110323 82.7415054076779
lradius 24.494902984309185
lwrist 7.567684187673967
lhand -29.64182577689516 18.347193816956104
lfingers 7.125020000000001
lthumb -2.6286725626137284 49.235596404193686
rclavicle 2.9939834482470716e-16 5.552061047437314e-17
rhumerus -27.767310356275217 -15.50543089328994 -79.76788947455132
rradius 30.233337012022705
rwrist 1.4887976974147712
rhand -18.03815691801014 22.848953143128092
rfingers 7.125020000000001
rthumb 8.111653345424934 -7.3130535141412
23
root 0.5489295525882669 17.976781048039108 8.72975403561686 -1.9329850814392509 -1.9935473052968153 -6.405856947179042
lfemur -25.237928463388563 3.0298558411333607 -13.744739284312322
ltibia 57.56157452520156
lfoot -11.087013296631707 2.921190955980645
ltoes -9.029354398809106
rfemur -1.3422175661360782 3.799068187823437 35.72385629682047
rtibia 31.422071219459625
rfoot -17.367571945233014 -9.3610521410576
rtoes 5.246334717882323
lowerback 11.519041512054935 1.2571185392109376 5.192350236100646
upperback -0.17373011602359428 2.8996708998664307 2.2622542936941814
thorax -6.193271270077139 1.0779273618175704 -1.1114019601667662
lowerneck -16.151755322773024 -3.5166096302338374 -1.774993589402838
upperneck 21.684658704491685 -5.014857148788827 0.6833726380360388
head 9.484372069277198 -2.408283016314803 -0.02734567719579123
lclavicle 3.0076413800563654e-16 5.650135962503167e-17
lhumerus -34.5978973635796 5.771006688991144 82.06707869801114
lradius 23.300737856848706
lwrist 7.033714081028884
lhand -30.236733991378603 17.430376276749595
lfingers 7.125020000000001
lthumb -3.2905130252786017 47.860767380501386
rclavicle 2.9939860599812e-16 5.55207980178507e-17
rhumerus -25.959313827070414 -13.691425851265215 -80.18157732019804
rradius 31.858068992628084
rwrist 0.23935908508145998
rhand -18.008280601866424 23.068934866452985
rfingers 7.125020000000001
rthumb 7.964590690807013 -7.285946324024371
24
root 0.5688177932276676 17.943746827570386 8.60893397500951 -1.4535500838824131 -2.416690326724653 -6.827645638630148
lfemur -26.421422189365916 1.9254530120882336 -13.398426438580326
ltibia 48.73014990651154
lfoot -12.41971611369246 4.418322719507946
ltoes -7.451238628323299
rfemur 0.35471135388140596 3.934790213724839 36.086803435009955
rtibia 32.20320460363594
rfoot -17.428049956673664 -9.250912005637169
rtoes 3.272482594394017
lowerback 11.322136545791723 1.4963534014177915 5.87373968905271
upperback -0.2401282287665232 3.3120971354254047 2.2456757400626945
thorax -6.159839563706302 1.2591365612353405 -1.5133640288682615
lowerneck -16.022559882008977 -3.526499817540562 -1.8354702548713338
upperneck 21.624694408375284 -5.038195125657741 0.7786280690381499
head 9.474090058693735 -2.3976263380832163 0.0040360069701265155
lclavicle 3.0076521363205107e-16 5.650213201114915e-17
lhumerus -35.153584658972555 7.16532370647897 81.4556872163958
lradius 21.954950553040256
lwrist 6.332961872764081
lhand -30.343807923910813 16.680736013521145
lfingers 7.125020000000001
lthumb -3.412594552277415 47.30009508847353
rclavicle 2.993985916919061e-16 5.552078774484059e-17
rhumerus -24.076165337531073 -12.282518796845167 -80.468359695757
rradius 32.559211681557606
rwrist 0.010767276224747047
rhand -18.313519710196815 23.251298707032127
rfingers 7.125020000000001
rthumb 7.738013757577694 -7.114035619592111
